<svg width="450" height="149" viewBox="0 0 450 149" fill="none" xmlns="http://www.w3.org/2000/svg">
<g clip-path="url(#clip0_258_621)">
<rect width="450" height="149" fill="white"/>
<path d="M102.16 70H91.216L72.912 42.288V70H61.968V25.072H72.912L91.216 52.912V25.072H102.16V70ZM138.061 62.064H121.293L118.605 70H107.149L123.405 25.072H136.077L152.333 70H140.749L138.061 62.064ZM135.245 53.616L129.677 37.168L124.173 53.616H135.245ZM168.225 25.072V70H157.281V25.072H168.225ZM187.1 61.552H201.436V70H176.156V25.072H187.1V61.552ZM245.184 25.072L229.632 55.152V70H218.688V55.152L203.136 25.072H215.552L224.256 43.888L232.896 25.072H245.184Z" fill="black"/>
<mask id="path-2-outside-1_258_621" maskUnits="userSpaceOnUse" x="18" y="79" width="407" height="51" fill="black">
<rect fill="white" x="18" y="79" width="407" height="51"/>
<path d="M61.16 127H50.216L31.912 99.288V127H20.968V82.072H31.912L50.216 109.912V82.072H61.16V127ZM80.037 90.84V99.928H94.693V108.376H80.037V118.232H96.613V127H69.093V82.072H96.613V90.84H80.037ZM165.542 82.072L153.83 127H140.582L133.414 97.432L125.99 127H112.742L101.35 82.072H113.062L119.526 114.776L127.526 82.072H139.558L147.238 114.776L153.766 82.072H165.542ZM187.287 127.448C184.001 127.448 181.057 126.915 178.455 125.848C175.852 124.781 173.761 123.203 172.183 121.112C170.647 119.021 169.836 116.504 169.751 113.56H181.399C181.569 115.224 182.145 116.504 183.127 117.4C184.108 118.253 185.388 118.68 186.967 118.68C188.588 118.68 189.868 118.317 190.807 117.592C191.745 116.824 192.215 115.779 192.215 114.456C192.215 113.347 191.831 112.429 191.063 111.704C190.337 110.979 189.42 110.381 188.311 109.912C187.244 109.443 185.708 108.909 183.703 108.312C180.801 107.416 178.433 106.52 176.599 105.624C174.764 104.728 173.185 103.405 171.863 101.656C170.54 99.9067 169.879 97.624 169.879 94.808C169.879 90.6267 171.393 87.3627 174.423 85.016C177.452 82.6267 181.399 81.432 186.263 81.432C191.212 81.432 195.201 82.6267 198.231 85.016C201.26 87.3627 202.881 90.648 203.095 94.872H191.255C191.169 93.4213 190.636 92.2907 189.655 91.48C188.673 90.6267 187.415 90.2 185.878 90.2C184.556 90.2 183.489 90.5627 182.679 91.288C181.868 91.9707 181.463 92.9733 181.463 94.296C181.463 95.7467 182.145 96.8773 183.51 97.688C184.876 98.4987 187.009 99.3733 189.911 100.312C192.812 101.293 195.159 102.232 196.951 103.128C198.785 104.024 200.364 105.325 201.687 107.032C203.009 108.739 203.671 110.936 203.671 113.624C203.671 116.184 203.009 118.509 201.687 120.6C200.407 122.691 198.529 124.355 196.055 125.592C193.58 126.829 190.657 127.448 187.287 127.448ZM221.35 118.552H235.686V127H210.406V82.072H221.35V118.552ZM251.85 90.84V99.928H266.506V108.376H251.85V118.232H268.426V127H240.906V82.072H268.426V90.84H251.85ZM307.851 82.072V90.84H295.947V127H285.003V90.84H273.099V82.072H307.851ZM345.663 82.072V90.84H333.759V127H322.815V90.84H310.911V82.072H345.663ZM362.1 90.84V99.928H376.756V108.376H362.1V118.232H378.676V127H351.156V82.072H378.676V90.84H362.1ZM408.693 127L399.349 110.04H396.725V127H385.781V82.072H404.149C407.69 82.072 410.698 82.6907 413.173 83.928C415.69 85.1653 417.567 86.872 418.805 89.048C420.042 91.1813 420.661 93.5707 420.661 96.216C420.661 99.2027 419.807 101.869 418.101 104.216C416.437 106.563 413.962 108.227 410.677 109.208L421.045 127H408.693ZM396.725 102.296H403.509C405.514 102.296 407.007 101.805 407.989 100.824C409.013 99.8427 409.525 98.456 409.525 96.664C409.525 94.9573 409.013 93.6133 407.989 92.632C407.007 91.6507 405.514 91.16 403.509 91.16H396.725V102.296Z"/>
</mask>
<path d="M61.16 127H50.216L31.912 99.288V127H20.968V82.072H31.912L50.216 109.912V82.072H61.16V127ZM80.037 90.84V99.928H94.693V108.376H80.037V118.232H96.613V127H69.093V82.072H96.613V90.84H80.037ZM165.542 82.072L153.83 127H140.582L133.414 97.432L125.99 127H112.742L101.35 82.072H113.062L119.526 114.776L127.526 82.072H139.558L147.238 114.776L153.766 82.072H165.542ZM187.287 127.448C184.001 127.448 181.057 126.915 178.455 125.848C175.852 124.781 173.761 123.203 172.183 121.112C170.647 119.021 169.836 116.504 169.751 113.56H181.399C181.569 115.224 182.145 116.504 183.127 117.4C184.108 118.253 185.388 118.68 186.967 118.68C188.588 118.68 189.868 118.317 190.807 117.592C191.745 116.824 192.215 115.779 192.215 114.456C192.215 113.347 191.831 112.429 191.063 111.704C190.337 110.979 189.42 110.381 188.311 109.912C187.244 109.443 185.708 108.909 183.703 108.312C180.801 107.416 178.433 106.52 176.599 105.624C174.764 104.728 173.185 103.405 171.863 101.656C170.54 99.9067 169.879 97.624 169.879 94.808C169.879 90.6267 171.393 87.3627 174.423 85.016C177.452 82.6267 181.399 81.432 186.263 81.432C191.212 81.432 195.201 82.6267 198.231 85.016C201.26 87.3627 202.881 90.648 203.095 94.872H191.255C191.169 93.4213 190.636 92.2907 189.655 91.48C188.673 90.6267 187.415 90.2 185.878 90.2C184.556 90.2 183.489 90.5627 182.679 91.288C181.868 91.9707 181.463 92.9733 181.463 94.296C181.463 95.7467 182.145 96.8773 183.51 97.688C184.876 98.4987 187.009 99.3733 189.911 100.312C192.812 101.293 195.159 102.232 196.951 103.128C198.785 104.024 200.364 105.325 201.687 107.032C203.009 108.739 203.671 110.936 203.671 113.624C203.671 116.184 203.009 118.509 201.687 120.6C200.407 122.691 198.529 124.355 196.055 125.592C193.58 126.829 190.657 127.448 187.287 127.448ZM221.35 118.552H235.686V127H210.406V82.072H221.35V118.552ZM251.85 90.84V99.928H266.506V108.376H251.85V118.232H268.426V127H240.906V82.072H268.426V90.84H251.85ZM307.851 82.072V90.84H295.947V127H285.003V90.84H273.099V82.072H307.851ZM345.663 82.072V90.84H333.759V127H322.815V90.84H310.911V82.072H345.663ZM362.1 90.84V99.928H376.756V108.376H362.1V118.232H378.676V127H351.156V82.072H378.676V90.84H362.1ZM408.693 127L399.349 110.04H396.725V127H385.781V82.072H404.149C407.69 82.072 410.698 82.6907 413.173 83.928C415.69 85.1653 417.567 86.872 418.805 89.048C420.042 91.1813 420.661 93.5707 420.661 96.216C420.661 99.2027 419.807 101.869 418.101 104.216C416.437 106.563 413.962 108.227 410.677 109.208L421.045 127H408.693ZM396.725 102.296H403.509C405.514 102.296 407.007 101.805 407.989 100.824C409.013 99.8427 409.525 98.456 409.525 96.664C409.525 94.9573 409.013 93.6133 407.989 92.632C407.007 91.6507 405.514 91.16 403.509 91.16H396.725V102.296Z" fill="#F6F6F6"/>
<path d="M61.16 127V129H63.16V127H61.16ZM50.216 127L48.5472 128.102L49.1401 129H50.216V127ZM31.912 99.288L33.5808 98.1857L29.912 92.6312V99.288H31.912ZM31.912 127V129H33.912V127H31.912ZM20.968 127H18.968V129H20.968V127ZM20.968 82.072V80.072H18.968V82.072H20.968ZM31.912 82.072L33.5832 80.9733L32.9906 80.072H31.912V82.072ZM50.216 109.912L48.5448 111.011L52.216 116.594V109.912H50.216ZM50.216 82.072V80.072H48.216V82.072H50.216ZM61.16 82.072H63.16V80.072H61.16V82.072ZM61.16 125H50.216V129H61.16V125ZM51.8848 125.898L33.5808 98.1857L30.2432 100.39L48.5472 128.102L51.8848 125.898ZM29.912 99.288V127H33.912V99.288H29.912ZM31.912 125H20.968V129H31.912V125ZM22.968 127V82.072H18.968V127H22.968ZM20.968 84.072H31.912V80.072H20.968V84.072ZM30.2408 83.1707L48.5448 111.011L51.8872 108.813L33.5832 80.9733L30.2408 83.1707ZM52.216 109.912V82.072H48.216V109.912H52.216ZM50.216 84.072H61.16V80.072H50.216V84.072ZM59.16 82.072V127H63.16V82.072H59.16ZM80.037 90.84V88.84H78.037V90.84H80.037ZM80.037 99.928H78.037V101.928H80.037V99.928ZM94.693 99.928H96.693V97.928H94.693V99.928ZM94.693 108.376V110.376H96.693V108.376H94.693ZM80.037 108.376V106.376H78.037V108.376H80.037ZM80.037 118.232H78.037V120.232H80.037V118.232ZM96.613 118.232H98.613V116.232H96.613V118.232ZM96.613 127V129H98.613V127H96.613ZM69.093 127H67.093V129H69.093V127ZM69.093 82.072V80.072H67.093V82.072H69.093ZM96.613 82.072H98.613V80.072H96.613V82.072ZM96.613 90.84V92.84H98.613V90.84H96.613ZM78.037 90.84V99.928H82.037V90.84H78.037ZM80.037 101.928H94.693V97.928H80.037V101.928ZM92.693 99.928V108.376H96.693V99.928H92.693ZM94.693 106.376H80.037V110.376H94.693V106.376ZM78.037 108.376V118.232H82.037V108.376H78.037ZM80.037 120.232H96.613V116.232H80.037V120.232ZM94.613 118.232V127H98.613V118.232H94.613ZM96.613 125H69.093V129H96.613V125ZM71.093 127V82.072H67.093V127H71.093ZM69.093 84.072H96.613V80.072H69.093V84.072ZM94.613 82.072V90.84H98.613V82.072H94.613ZM96.613 88.84H80.037V92.84H96.613V88.84ZM165.542 82.072L167.477 82.5765L168.13 80.072H165.542V82.072ZM153.83 127V129H155.375L155.765 127.505L153.83 127ZM140.582 127L138.638 127.471L139.009 129H140.582V127ZM133.414 97.432L135.358 96.9608L131.474 96.945L133.414 97.432ZM125.99 127V129H127.55L127.93 127.487L125.99 127ZM112.742 127L110.803 127.492L111.186 129H112.742V127ZM101.35 82.072V80.072H98.7796L99.4114 82.5636L101.35 82.072ZM113.062 82.072L115.024 81.6842L114.705 80.072H113.062V82.072ZM119.526 114.776L117.564 115.164L121.469 115.251L119.526 114.776ZM127.526 82.072V80.072H125.956L125.583 81.5968L127.526 82.072ZM139.558 82.072L141.505 81.6148L141.143 80.072H139.558V82.072ZM147.238 114.776L145.291 115.233L149.199 115.167L147.238 114.776ZM153.766 82.072V80.072H152.126L151.805 81.6805L153.766 82.072ZM163.607 81.5675L151.895 126.495L155.765 127.505L167.477 82.5765L163.607 81.5675ZM153.83 125H140.582V129H153.83V125ZM142.526 126.529L135.358 96.9608L131.47 97.9032L138.638 127.471L142.526 126.529ZM131.474 96.945L124.05 126.513L127.93 127.487L135.354 97.919L131.474 96.945ZM125.99 125H112.742V129H125.99V125ZM114.681 126.508L103.289 81.5804L99.4114 82.5636L110.803 127.492L114.681 126.508ZM101.35 84.072H113.062V80.072H101.35V84.072ZM111.1 82.4598L117.564 115.164L121.488 114.388L115.024 81.6842L111.1 82.4598ZM121.469 115.251L129.469 82.5472L125.583 81.5968L117.583 114.301L121.469 115.251ZM127.526 84.072H139.558V80.072H127.526V84.072ZM137.611 82.5292L145.291 115.233L149.185 114.319L141.505 81.6148L137.611 82.5292ZM149.199 115.167L155.727 82.4635L151.805 81.6805L145.277 114.385L149.199 115.167ZM153.766 84.072H165.542V80.072H153.766V84.072ZM178.455 125.848L177.696 127.699L177.696 127.699L178.455 125.848ZM172.183 121.112L170.571 122.296L170.579 122.307L170.586 122.317L172.183 121.112ZM169.751 113.56V111.56H167.692L167.751 113.618L169.751 113.56ZM181.399 113.56L183.388 113.356L183.204 111.56H181.399V113.56ZM183.127 117.4L181.778 118.877L181.796 118.893L181.814 118.909L183.127 117.4ZM190.807 117.592L192.029 119.175L192.051 119.158L192.073 119.14L190.807 117.592ZM191.063 111.704L189.648 113.118L189.668 113.138L189.689 113.158L191.063 111.704ZM188.311 109.912L187.505 111.743L187.518 111.748L187.531 111.754L188.311 109.912ZM183.703 108.312L183.112 110.223L183.122 110.226L183.132 110.229L183.703 108.312ZM176.599 105.624L175.721 107.421L176.599 105.624ZM171.863 101.656L173.458 100.45L173.458 100.45L171.863 101.656ZM174.423 85.016L175.647 86.5971L175.654 86.5917L175.661 86.5863L174.423 85.016ZM198.231 85.016L196.992 86.5863L196.999 86.5917L197.006 86.5971L198.231 85.016ZM203.095 94.872V96.872H205.198L205.092 94.7711L203.095 94.872ZM191.255 94.872L189.258 94.9894L189.369 96.872H191.255V94.872ZM189.655 91.48L188.342 92.9892L188.361 93.0058L188.381 93.0219L189.655 91.48ZM182.679 91.288L183.967 92.8178L183.99 92.7985L184.012 92.7785L182.679 91.288ZM183.51 97.688L184.532 95.9683L184.532 95.9683L183.51 97.688ZM189.911 100.312L190.551 98.4174L190.539 98.4132L190.526 98.4091L189.911 100.312ZM196.951 103.128L196.056 104.917L196.064 104.921L196.073 104.925L196.951 103.128ZM201.687 107.032L200.106 108.257L200.106 108.257L201.687 107.032ZM201.687 120.6L199.996 119.531L199.988 119.543L199.981 119.556L201.687 120.6ZM196.055 125.592L195.16 123.803L195.16 123.803L196.055 125.592ZM187.287 125.448C184.218 125.448 181.538 124.95 179.213 123.997L177.696 127.699C180.576 128.879 183.784 129.448 187.287 129.448V125.448ZM179.213 123.997C176.917 123.056 175.125 121.69 173.779 119.907L170.586 122.317C172.397 124.715 174.787 126.506 177.696 127.699L179.213 123.997ZM173.794 119.928C172.53 118.208 171.825 116.097 171.75 113.502L167.751 113.618C167.847 116.911 168.763 119.835 170.571 122.296L173.794 119.928ZM169.751 115.56H181.399V111.56H169.751V115.56ZM179.409 113.764C179.616 115.786 180.347 117.571 181.778 118.877L184.475 115.923C183.943 115.437 183.522 114.662 183.388 113.356L179.409 113.764ZM181.814 118.909C183.233 120.143 185.013 120.68 186.967 120.68V116.68C185.762 116.68 184.982 116.363 184.439 115.891L181.814 118.909ZM186.967 120.68C188.87 120.68 190.632 120.254 192.029 119.175L189.584 116.009C189.104 116.38 188.306 116.68 186.967 116.68V120.68ZM192.073 119.14C193.522 117.955 194.215 116.317 194.215 114.456H190.215C190.215 115.241 189.969 115.693 189.54 116.044L192.073 119.14ZM194.215 114.456C194.215 112.827 193.626 111.374 192.436 110.25L189.689 113.158C190.035 113.485 190.215 113.866 190.215 114.456H194.215ZM192.477 110.29C191.54 109.354 190.396 108.623 189.09 108.07L187.531 111.754C188.444 112.14 189.134 112.604 189.648 113.118L192.477 110.29ZM189.116 108.081C187.936 107.562 186.307 107.001 184.273 106.395L183.132 110.229C185.109 110.818 186.552 111.323 187.505 111.743L189.116 108.081ZM184.293 106.401C181.447 105.522 179.185 104.661 177.476 103.827L175.721 107.421C177.681 108.379 180.155 109.31 183.112 110.223L184.293 106.401ZM177.476 103.827C175.944 103.079 174.605 101.968 173.458 100.45L170.267 102.862C171.765 104.843 173.583 106.377 175.721 107.421L177.476 103.827ZM173.458 100.45C172.464 99.1355 171.879 97.3131 171.879 94.808H167.879C167.879 97.9349 168.616 100.678 170.267 102.862L173.458 100.45ZM171.879 94.808C171.879 91.1804 173.156 88.5269 175.647 86.5971L173.198 83.4349C169.63 86.1984 167.879 90.073 167.879 94.808H171.879ZM175.661 86.5863C178.254 84.5411 181.729 83.432 186.263 83.432V79.432C181.068 79.432 176.65 80.7122 173.184 83.4457L175.661 86.5863ZM186.263 83.432C190.891 83.432 194.405 84.5457 196.992 86.5863L199.469 83.4457C195.998 80.7076 191.533 79.432 186.263 79.432V83.432ZM197.006 86.5971C199.523 88.5469 200.91 91.2633 201.097 94.9729L205.092 94.7711C204.853 90.0327 202.997 86.1784 199.455 83.4349L197.006 86.5971ZM203.095 92.872H191.255V96.872H203.095V92.872ZM193.251 94.7546C193.138 92.8357 192.4 91.1542 190.928 89.9381L188.381 93.0219C188.871 93.4272 189.2 94.007 189.258 94.9894L193.251 94.7546ZM190.967 89.9708C189.558 88.7454 187.805 88.2 185.878 88.2V92.2C187.024 92.2 187.789 92.5079 188.342 92.9892L190.967 89.9708ZM185.878 88.2C184.175 88.2 182.598 88.6767 181.345 89.7975L184.012 92.7785C184.381 92.4486 184.937 92.2 185.878 92.2V88.2ZM181.39 89.7582C180.019 90.9126 179.463 92.5424 179.463 94.296H183.463C183.463 93.4042 183.716 93.0287 183.967 92.8178L181.39 89.7582ZM179.463 94.296C179.463 96.5295 180.587 98.2779 182.489 99.4077L184.532 95.9683C183.704 95.4768 183.463 94.9638 183.463 94.296H179.463ZM182.489 99.4077C184.051 100.335 186.356 101.264 189.295 102.215L190.526 98.4091C187.662 97.4825 185.7 96.6623 184.532 95.9683L182.489 99.4077ZM189.27 102.207C192.124 103.172 194.377 104.077 196.056 104.917L197.845 101.339C195.94 100.387 193.499 99.4145 190.551 98.4174L189.27 102.207ZM196.073 104.925C197.617 105.679 198.959 106.778 200.106 108.257L203.267 105.807C201.768 103.872 199.954 102.369 197.828 101.331L196.073 104.925ZM200.106 108.257C201.096 109.535 201.671 111.269 201.671 113.624H205.671C205.671 110.603 204.923 107.943 203.267 105.807L200.106 108.257ZM201.671 113.624C201.671 115.819 201.109 117.771 199.996 119.531L203.377 121.669C204.909 119.247 205.671 116.549 205.671 113.624H201.671ZM199.981 119.556C198.921 121.287 197.344 122.711 195.16 123.803L196.949 127.381C199.714 125.998 201.892 124.094 203.392 121.644L199.981 119.556ZM195.16 123.803C193.017 124.875 190.413 125.448 187.287 125.448V129.448C190.901 129.448 194.142 128.784 196.949 127.381L195.16 123.803ZM221.35 118.552H219.35V120.552H221.35V118.552ZM235.686 118.552H237.686V116.552H235.686V118.552ZM235.686 127V129H237.686V127H235.686ZM210.406 127H208.406V129H210.406V127ZM210.406 82.072V80.072H208.406V82.072H210.406ZM221.35 82.072H223.35V80.072H221.35V82.072ZM221.35 120.552H235.686V116.552H221.35V120.552ZM233.686 118.552V127H237.686V118.552H233.686ZM235.686 125H210.406V129H235.686V125ZM212.406 127V82.072H208.406V127H212.406ZM210.406 84.072H221.35V80.072H210.406V84.072ZM219.35 82.072V118.552H223.35V82.072H219.35ZM251.85 90.84V88.84H249.85V90.84H251.85ZM251.85 99.928H249.85V101.928H251.85V99.928ZM266.506 99.928H268.506V97.928H266.506V99.928ZM266.506 108.376V110.376H268.506V108.376H266.506ZM251.85 108.376V106.376H249.85V108.376H251.85ZM251.85 118.232H249.85V120.232H251.85V118.232ZM268.426 118.232H270.426V116.232H268.426V118.232ZM268.426 127V129H270.426V127H268.426ZM240.906 127H238.906V129H240.906V127ZM240.906 82.072V80.072H238.906V82.072H240.906ZM268.426 82.072H270.426V80.072H268.426V82.072ZM268.426 90.84V92.84H270.426V90.84H268.426ZM249.85 90.84V99.928H253.85V90.84H249.85ZM251.85 101.928H266.506V97.928H251.85V101.928ZM264.506 99.928V108.376H268.506V99.928H264.506ZM266.506 106.376H251.85V110.376H266.506V106.376ZM249.85 108.376V118.232H253.85V108.376H249.85ZM251.85 120.232H268.426V116.232H251.85V120.232ZM266.426 118.232V127H270.426V118.232H266.426ZM268.426 125H240.906V129H268.426V125ZM242.906 127V82.072H238.906V127H242.906ZM240.906 84.072H268.426V80.072H240.906V84.072ZM266.426 82.072V90.84H270.426V82.072H266.426ZM268.426 88.84H251.85V92.84H268.426V88.84ZM307.851 82.072H309.851V80.072H307.851V82.072ZM307.851 90.84V92.84H309.851V90.84H307.851ZM295.947 90.84V88.84H293.947V90.84H295.947ZM295.947 127V129H297.947V127H295.947ZM285.003 127H283.003V129H285.003V127ZM285.003 90.84H287.003V88.84H285.003V90.84ZM273.099 90.84H271.099V92.84H273.099V90.84ZM273.099 82.072V80.072H271.099V82.072H273.099ZM305.851 82.072V90.84H309.851V82.072H305.851ZM307.851 88.84H295.947V92.84H307.851V88.84ZM293.947 90.84V127H297.947V90.84H293.947ZM295.947 125H285.003V129H295.947V125ZM287.003 127V90.84H283.003V127H287.003ZM285.003 88.84H273.099V92.84H285.003V88.84ZM275.099 90.84V82.072H271.099V90.84H275.099ZM273.099 84.072H307.851V80.072H273.099V84.072ZM345.663 82.072H347.663V80.072H345.663V82.072ZM345.663 90.84V92.84H347.663V90.84H345.663ZM333.759 90.84V88.84H331.759V90.84H333.759ZM333.759 127V129H335.759V127H333.759ZM322.815 127H320.815V129H322.815V127ZM322.815 90.84H324.815V88.84H322.815V90.84ZM310.911 90.84H308.911V92.84H310.911V90.84ZM310.911 82.072V80.072H308.911V82.072H310.911ZM343.663 82.072V90.84H347.663V82.072H343.663ZM345.663 88.84H333.759V92.84H345.663V88.84ZM331.759 90.84V127H335.759V90.84H331.759ZM333.759 125H322.815V129H333.759V125ZM324.815 127V90.84H320.815V127H324.815ZM322.815 88.84H310.911V92.84H322.815V88.84ZM312.911 90.84V82.072H308.911V90.84H312.911ZM310.911 84.072H345.663V80.072H310.911V84.072ZM362.1 90.84V88.84H360.1V90.84H362.1ZM362.1 99.928H360.1V101.928H362.1V99.928ZM376.756 99.928H378.756V97.928H376.756V99.928ZM376.756 108.376V110.376H378.756V108.376H376.756ZM362.1 108.376V106.376H360.1V108.376H362.1ZM362.1 118.232H360.1V120.232H362.1V118.232ZM378.676 118.232H380.676V116.232H378.676V118.232ZM378.676 127V129H380.676V127H378.676ZM351.156 127H349.156V129H351.156V127ZM351.156 82.072V80.072H349.156V82.072H351.156ZM378.676 82.072H380.676V80.072H378.676V82.072ZM378.676 90.84V92.84H380.676V90.84H378.676ZM360.1 90.84V99.928H364.1V90.84H360.1ZM362.1 101.928H376.756V97.928H362.1V101.928ZM374.756 99.928V108.376H378.756V99.928H374.756ZM376.756 106.376H362.1V110.376H376.756V106.376ZM360.1 108.376V118.232H364.1V108.376H360.1ZM362.1 120.232H378.676V116.232H362.1V120.232ZM376.676 118.232V127H380.676V118.232H376.676ZM378.676 125H351.156V129H378.676V125ZM353.156 127V82.072H349.156V127H353.156ZM351.156 84.072H378.676V80.072H351.156V84.072ZM376.676 82.072V90.84H380.676V82.072H376.676ZM378.676 88.84H362.1V92.84H378.676V88.84ZM408.693 127L406.941 127.965L407.511 129H408.693V127ZM399.349 110.04L401.1 109.075L400.53 108.04H399.349V110.04ZM396.725 110.04V108.04H394.725V110.04H396.725ZM396.725 127V129H398.725V127H396.725ZM385.781 127H383.781V129H385.781V127ZM385.781 82.072V80.072H383.781V82.072H385.781ZM413.173 83.928L412.278 85.7169L412.29 85.7229L413.173 83.928ZM418.805 89.048L417.066 90.0366L417.07 90.044L417.074 90.0514L418.805 89.048ZM418.101 104.216L416.483 103.04L416.476 103.049L416.469 103.059L418.101 104.216ZM410.677 109.208L410.104 107.292L407.669 108.019L408.948 110.215L410.677 109.208ZM421.045 127V129H424.525L422.773 125.993L421.045 127ZM396.725 102.296H394.725V104.296H396.725V102.296ZM407.989 100.824L406.605 99.38L406.589 99.3947L406.574 99.4098L407.989 100.824ZM407.989 92.632L406.574 94.0462L406.589 94.0613L406.605 94.076L407.989 92.632ZM396.725 91.16V89.16H394.725V91.16H396.725ZM410.444 126.035L401.1 109.075L397.597 111.005L406.941 127.965L410.444 126.035ZM399.349 108.04H396.725V112.04H399.349V108.04ZM394.725 110.04V127H398.725V110.04H394.725ZM396.725 125H385.781V129H396.725V125ZM387.781 127V82.072H383.781V127H387.781ZM385.781 84.072H404.149V80.072H385.781V84.072ZM404.149 84.072C407.464 84.072 410.148 84.6517 412.278 85.7169L414.067 82.1391C411.248 80.7296 407.916 80.072 404.149 80.072V84.072ZM412.29 85.7229C414.493 86.8055 416.05 88.2503 417.066 90.0366L420.543 88.0594C419.084 85.4937 416.887 83.5252 414.055 82.1331L412.29 85.7229ZM417.074 90.0514C418.122 91.8578 418.661 93.8966 418.661 96.216H422.661C422.661 93.2447 421.962 90.5049 420.535 88.0446L417.074 90.0514ZM418.661 96.216C418.661 98.7932 417.933 101.045 416.483 103.04L419.718 105.392C421.681 102.693 422.661 99.6121 422.661 96.216H418.661ZM416.469 103.059C415.11 104.975 413.047 106.413 410.104 107.292L411.249 111.124C414.877 110.041 417.763 108.15 419.732 105.373L416.469 103.059ZM408.948 110.215L419.316 128.007L422.773 125.993L412.405 108.201L408.948 110.215ZM421.045 125H408.693V129H421.045V125ZM396.725 104.296H403.509V100.296H396.725V104.296ZM403.509 104.296C405.808 104.296 407.907 103.734 409.403 102.238L406.574 99.4098C406.108 99.8766 405.22 100.296 403.509 100.296V104.296ZM409.372 102.268C410.888 100.816 411.525 98.849 411.525 96.664H407.525C407.525 98.063 407.137 98.8696 406.605 99.38L409.372 102.268ZM411.525 96.664C411.525 94.5315 410.868 92.6219 409.372 91.188L406.605 94.076C407.157 94.6048 407.525 95.3832 407.525 96.664H411.525ZM409.403 91.2178C407.907 89.7219 405.808 89.16 403.509 89.16V93.16C405.22 93.16 406.108 93.5794 406.574 94.0462L409.403 91.2178ZM403.509 89.16H396.725V93.16H403.509V89.16ZM394.725 91.16V102.296H398.725V91.16H394.725Z" fill="#274060" mask="url(#path-2-outside-1_258_621)"/>
<path d="M30.1987 24.2511C30.2279 23.6429 30.4591 23.0707 30.8448 22.652C31.2305 22.2333 31.7414 22 32.2725 22H38.7275C39.2586 22 39.7695 22.2333 40.1552 22.652C40.5409 23.0707 40.7721 23.6429 40.8013 24.2511L41.6093 40.926C41.6248 41.2494 41.5827 41.573 41.4855 41.8771C41.3883 42.1812 41.238 42.4593 41.0439 42.6945C40.8498 42.9297 40.616 43.1171 40.3566 43.2451C40.0972 43.3732 39.8178 43.4392 39.5355 43.4392H31.4645C31.1822 43.4392 30.9028 43.3732 30.6434 43.2451C30.384 43.1171 30.1502 42.9297 29.9561 42.6945C29.762 42.4593 29.6117 42.1812 29.5145 41.8771C29.4173 41.573 29.3752 41.2494 29.3907 40.926L30.1987 24.2511ZM22 50.5856C22 48.6903 22.6565 46.8725 23.825 45.5323C24.9934 44.1921 26.5783 43.4392 28.2308 43.4392H42.7692C44.4217 43.4392 46.0066 44.1921 47.1751 45.5323C48.3435 46.8725 49 48.6903 49 50.5856V66.0695C49 67.0171 48.6718 67.926 48.0875 68.5961C47.5033 69.2662 46.7109 69.6427 45.8846 69.6427H25.1154C24.2891 69.6427 23.4967 69.2662 22.9125 68.5961C22.3282 67.926 22 67.0171 22 66.0695V50.5856Z" stroke="black" stroke-width="2"/>
<path d="M35.5002 61.27C37.7369 61.27 39.5502 59.3862 39.5502 57.0625C39.5502 54.7388 37.7369 52.855 35.5002 52.855C33.2634 52.855 31.4502 54.7388 31.4502 57.0625C31.4502 59.3862 33.2634 61.27 35.5002 61.27Z" fill="#274060"/>
</g>
<defs>
<clipPath id="clip0_258_621">
<rect width="450" height="149" fill="white"/>
</clipPath>
</defs>
</svg>
