<svg width="417" height="153" viewBox="0 0 417 153" fill="none" xmlns="http://www.w3.org/2000/svg">
<path d="M79.16 70H68.216L49.912 42.288V70H38.968V25.072H49.912L68.216 52.912V25.072H79.16V70ZM115.061 62.064H98.293L95.605 70H84.149L100.405 25.072H113.077L129.333 70H117.749L115.061 62.064ZM112.245 53.616L106.677 37.168L101.173 53.616H112.245ZM145.225 25.072V70H134.281V25.072H145.225ZM164.1 61.552H178.436V70H153.156V25.072H164.1V61.552ZM222.184 25.072L206.632 55.152V70H195.688V55.152L180.136 25.072H192.552L201.256 43.888L209.896 25.072H222.184Z" fill="black"/>
<path d="M11.5708 30.8606C11.5979 30.3338 11.812 29.8382 12.1691 29.4756C12.5263 29.113 12.9993 28.9109 13.491 28.9109H19.468C19.9597 28.9109 20.4327 29.113 20.7899 29.4756C21.147 29.8382 21.3611 30.3338 21.3881 30.8606L22.1362 45.3027C22.1506 45.5828 22.1116 45.8631 22.0216 46.1264C21.9316 46.3898 21.7925 46.6307 21.6128 46.8344C21.433 47.0381 21.2165 47.2004 20.9763 47.3113C20.7362 47.4222 20.4775 47.4794 20.216 47.4794H12.743C12.4815 47.4794 12.2228 47.4222 11.9826 47.3113C11.7425 47.2004 11.5259 47.0381 11.3462 46.8344C11.1665 46.6307 11.0274 46.3898 10.9374 46.1264C10.8474 45.8631 10.8084 45.5828 10.8228 45.3027L11.5708 30.8606ZM3.97949 53.6688C3.97949 52.0273 4.58732 50.453 5.66926 49.2922C6.7512 48.1315 8.21863 47.4794 9.74872 47.4794H23.2103C24.7404 47.4794 26.2078 48.1315 27.2897 49.2922C28.3717 50.453 28.9795 52.0273 28.9795 53.6688V67.0794C28.9795 67.9002 28.6756 68.6873 28.1346 69.2677C27.5936 69.8481 26.8599 70.1742 26.0949 70.1742H6.86411C6.09906 70.1742 5.36535 69.8481 4.82438 69.2677C4.28341 68.6873 3.97949 67.9002 3.97949 67.0794V53.6688Z" stroke="black" stroke-width="2"/>
<path d="M16.4795 62.9225C18.5506 62.9225 20.2295 61.291 20.2295 59.2784C20.2295 57.2658 18.5506 55.6343 16.4795 55.6343C14.4084 55.6343 12.7295 57.2658 12.7295 59.2784C12.7295 61.291 14.4084 62.9225 16.4795 62.9225Z" fill="#274060"/>
<mask id="path-4-outside-1_236_571" maskUnits="userSpaceOnUse" x="1" y="76.8665" width="407" height="51" fill="black">
<rect fill="white" x="1" y="76.8665" width="407" height="51"/>
<path d="M44.16 124.866H33.216L14.912 97.1545V124.866H3.968V79.9385H14.912L33.216 107.778V79.9385H44.16V124.866ZM63.037 88.7065V97.7945H77.693V106.242H63.037V116.098H79.613V124.866H52.093V79.9385H79.613V88.7065H63.037ZM148.542 79.9385L136.83 124.866H123.582L116.414 95.2985L108.99 124.866H95.742L84.35 79.9385H96.062L102.526 112.642L110.526 79.9385H122.558L130.238 112.642L136.766 79.9385H148.542ZM170.287 125.314C167.001 125.314 164.057 124.781 161.455 123.714C158.852 122.648 156.761 121.069 155.183 118.978C153.647 116.888 152.836 114.37 152.751 111.426H164.399C164.569 113.09 165.145 114.37 166.127 115.266C167.108 116.12 168.388 116.546 169.967 116.546C171.588 116.546 172.868 116.184 173.807 115.458C174.745 114.69 175.215 113.645 175.215 112.322C175.215 111.213 174.831 110.296 174.063 109.57C173.337 108.845 172.42 108.248 171.311 107.778C170.244 107.309 168.708 106.776 166.703 106.178C163.801 105.282 161.433 104.386 159.599 103.49C157.764 102.594 156.185 101.272 154.863 99.5225C153.54 97.7731 152.879 95.4905 152.879 92.6745C152.879 88.4931 154.393 85.2291 157.423 82.8825C160.452 80.4931 164.399 79.2985 169.263 79.2985C174.212 79.2985 178.201 80.4931 181.231 82.8825C184.26 85.2291 185.881 88.5145 186.095 92.7385H174.255C174.169 91.2878 173.636 90.1571 172.655 89.3465C171.673 88.4931 170.415 88.0665 168.878 88.0665C167.556 88.0665 166.489 88.4291 165.679 89.1545C164.868 89.8371 164.463 90.8398 164.463 92.1625C164.463 93.6131 165.145 94.7438 166.51 95.5545C167.876 96.3651 170.009 97.2398 172.911 98.1785C175.812 99.1598 178.159 100.098 179.951 100.994C181.785 101.89 183.364 103.192 184.687 104.898C186.009 106.605 186.671 108.802 186.671 111.49C186.671 114.05 186.009 116.376 184.687 118.466C183.407 120.557 181.529 122.221 179.055 123.458C176.58 124.696 173.657 125.314 170.287 125.314ZM204.35 116.418H218.686V124.866H193.406V79.9385H204.35V116.418ZM234.85 88.7065V97.7945H249.506V106.242H234.85V116.098H251.426V124.866H223.906V79.9385H251.426V88.7065H234.85ZM290.851 79.9385V88.7065H278.947V124.866H268.003V88.7065H256.099V79.9385H290.851ZM328.663 79.9385V88.7065H316.759V124.866H305.815V88.7065H293.911V79.9385H328.663ZM345.1 88.7065V97.7945H359.756V106.242H345.1V116.098H361.676V124.866H334.156V79.9385H361.676V88.7065H345.1ZM391.693 124.866L382.349 107.906H379.725V124.866H368.781V79.9385H387.149C390.69 79.9385 393.698 80.5571 396.173 81.7945C398.69 83.0318 400.567 84.7385 401.805 86.9145C403.042 89.0478 403.661 91.4371 403.661 94.0825C403.661 97.0691 402.807 99.7358 401.101 102.082C399.437 104.429 396.962 106.093 393.677 107.074L404.045 124.866H391.693ZM379.725 100.162H386.509C388.514 100.162 390.007 99.6718 390.989 98.6905C392.013 97.7091 392.525 96.3225 392.525 94.5305C392.525 92.8238 392.013 91.4798 390.989 90.4985C390.007 89.5171 388.514 89.0265 386.509 89.0265H379.725V100.162Z"/>
</mask>
<path d="M44.16 124.866H33.216L14.912 97.1545V124.866H3.968V79.9385H14.912L33.216 107.778V79.9385H44.16V124.866ZM63.037 88.7065V97.7945H77.693V106.242H63.037V116.098H79.613V124.866H52.093V79.9385H79.613V88.7065H63.037ZM148.542 79.9385L136.83 124.866H123.582L116.414 95.2985L108.99 124.866H95.742L84.35 79.9385H96.062L102.526 112.642L110.526 79.9385H122.558L130.238 112.642L136.766 79.9385H148.542ZM170.287 125.314C167.001 125.314 164.057 124.781 161.455 123.714C158.852 122.648 156.761 121.069 155.183 118.978C153.647 116.888 152.836 114.37 152.751 111.426H164.399C164.569 113.09 165.145 114.37 166.127 115.266C167.108 116.12 168.388 116.546 169.967 116.546C171.588 116.546 172.868 116.184 173.807 115.458C174.745 114.69 175.215 113.645 175.215 112.322C175.215 111.213 174.831 110.296 174.063 109.57C173.337 108.845 172.42 108.248 171.311 107.778C170.244 107.309 168.708 106.776 166.703 106.178C163.801 105.282 161.433 104.386 159.599 103.49C157.764 102.594 156.185 101.272 154.863 99.5225C153.54 97.7731 152.879 95.4905 152.879 92.6745C152.879 88.4931 154.393 85.2291 157.423 82.8825C160.452 80.4931 164.399 79.2985 169.263 79.2985C174.212 79.2985 178.201 80.4931 181.231 82.8825C184.26 85.2291 185.881 88.5145 186.095 92.7385H174.255C174.169 91.2878 173.636 90.1571 172.655 89.3465C171.673 88.4931 170.415 88.0665 168.878 88.0665C167.556 88.0665 166.489 88.4291 165.679 89.1545C164.868 89.8371 164.463 90.8398 164.463 92.1625C164.463 93.6131 165.145 94.7438 166.51 95.5545C167.876 96.3651 170.009 97.2398 172.911 98.1785C175.812 99.1598 178.159 100.098 179.951 100.994C181.785 101.89 183.364 103.192 184.687 104.898C186.009 106.605 186.671 108.802 186.671 111.49C186.671 114.05 186.009 116.376 184.687 118.466C183.407 120.557 181.529 122.221 179.055 123.458C176.58 124.696 173.657 125.314 170.287 125.314ZM204.35 116.418H218.686V124.866H193.406V79.9385H204.35V116.418ZM234.85 88.7065V97.7945H249.506V106.242H234.85V116.098H251.426V124.866H223.906V79.9385H251.426V88.7065H234.85ZM290.851 79.9385V88.7065H278.947V124.866H268.003V88.7065H256.099V79.9385H290.851ZM328.663 79.9385V88.7065H316.759V124.866H305.815V88.7065H293.911V79.9385H328.663ZM345.1 88.7065V97.7945H359.756V106.242H345.1V116.098H361.676V124.866H334.156V79.9385H361.676V88.7065H345.1ZM391.693 124.866L382.349 107.906H379.725V124.866H368.781V79.9385H387.149C390.69 79.9385 393.698 80.5571 396.173 81.7945C398.69 83.0318 400.567 84.7385 401.805 86.9145C403.042 89.0478 403.661 91.4371 403.661 94.0825C403.661 97.0691 402.807 99.7358 401.101 102.082C399.437 104.429 396.962 106.093 393.677 107.074L404.045 124.866H391.693ZM379.725 100.162H386.509C388.514 100.162 390.007 99.6718 390.989 98.6905C392.013 97.7091 392.525 96.3225 392.525 94.5305C392.525 92.8238 392.013 91.4798 390.989 90.4985C390.007 89.5171 388.514 89.0265 386.509 89.0265H379.725V100.162Z" fill="#F6F6F6"/>
<path d="M44.16 124.866V126.866H46.16V124.866H44.16ZM33.216 124.866L31.5472 125.969L32.1401 126.866H33.216V124.866ZM14.912 97.1545L16.5808 96.0522L12.912 90.4976V97.1545H14.912ZM14.912 124.866V126.866H16.912V124.866H14.912ZM3.968 124.866H1.968V126.866H3.968V124.866ZM3.968 79.9385V77.9385H1.968V79.9385H3.968ZM14.912 79.9385L16.5832 78.8397L15.9906 77.9385H14.912V79.9385ZM33.216 107.778L31.5448 108.877L35.216 114.461V107.778H33.216ZM33.216 79.9385V77.9385H31.216V79.9385H33.216ZM44.16 79.9385H46.16V77.9385H44.16V79.9385ZM44.16 122.866H33.216V126.866H44.16V122.866ZM34.8848 123.764L16.5808 96.0522L13.2432 98.2567L31.5472 125.969L34.8848 123.764ZM12.912 97.1545V124.866H16.912V97.1545H12.912ZM14.912 122.866H3.968V126.866H14.912V122.866ZM5.968 124.866V79.9385H1.968V124.866H5.968ZM3.968 81.9385H14.912V77.9385H3.968V81.9385ZM13.2408 81.0372L31.5448 108.877L34.8872 106.68L16.5832 78.8397L13.2408 81.0372ZM35.216 107.778V79.9385H31.216V107.778H35.216ZM33.216 81.9385H44.16V77.9385H33.216V81.9385ZM42.16 79.9385V124.866H46.16V79.9385H42.16ZM63.037 88.7065V86.7065H61.037V88.7065H63.037ZM63.037 97.7945H61.037V99.7945H63.037V97.7945ZM77.693 97.7945H79.693V95.7945H77.693V97.7945ZM77.693 106.242V108.242H79.693V106.242H77.693ZM63.037 106.242V104.242H61.037V106.242H63.037ZM63.037 116.098H61.037V118.098H63.037V116.098ZM79.613 116.098H81.613V114.098H79.613V116.098ZM79.613 124.866V126.866H81.613V124.866H79.613ZM52.093 124.866H50.093V126.866H52.093V124.866ZM52.093 79.9385V77.9385H50.093V79.9385H52.093ZM79.613 79.9385H81.613V77.9385H79.613V79.9385ZM79.613 88.7065V90.7065H81.613V88.7065H79.613ZM61.037 88.7065V97.7945H65.037V88.7065H61.037ZM63.037 99.7945H77.693V95.7945H63.037V99.7945ZM75.693 97.7945V106.242H79.693V97.7945H75.693ZM77.693 104.242H63.037V108.242H77.693V104.242ZM61.037 106.242V116.098H65.037V106.242H61.037ZM63.037 118.098H79.613V114.098H63.037V118.098ZM77.613 116.098V124.866H81.613V116.098H77.613ZM79.613 122.866H52.093V126.866H79.613V122.866ZM54.093 124.866V79.9385H50.093V124.866H54.093ZM52.093 81.9385H79.613V77.9385H52.093V81.9385ZM77.613 79.9385V88.7065H81.613V79.9385H77.613ZM79.613 86.7065H63.037V90.7065H79.613V86.7065ZM148.542 79.9385L150.477 80.443L151.13 77.9385H148.542V79.9385ZM136.83 124.866V126.866H138.375L138.765 125.371L136.83 124.866ZM123.582 124.866L121.638 125.338L122.009 126.866H123.582V124.866ZM116.414 95.2985L118.358 94.8273L114.474 94.8114L116.414 95.2985ZM108.99 124.866V126.866H110.55L110.93 125.354L108.99 124.866ZM95.742 124.866L93.8034 125.358L94.1858 126.866H95.742V124.866ZM84.35 79.9385V77.9385H81.7796L82.4114 80.43L84.35 79.9385ZM96.062 79.9385L98.024 79.5507L97.7054 77.9385H96.062V79.9385ZM102.526 112.642L100.564 113.03L104.469 113.118L102.526 112.642ZM110.526 79.9385V77.9385H108.956L108.583 79.4632L110.526 79.9385ZM122.558 79.9385L124.505 79.4812L124.143 77.9385H122.558V79.9385ZM130.238 112.642L128.291 113.1L132.199 113.034L130.238 112.642ZM136.766 79.9385V77.9385H135.126L134.805 79.547L136.766 79.9385ZM146.607 79.4339L134.895 124.362L138.765 125.371L150.477 80.443L146.607 79.4339ZM136.83 122.866H123.582V126.866H136.83V122.866ZM125.526 124.395L118.358 94.8273L114.47 95.7697L121.638 125.338L125.526 124.395ZM114.474 94.8114L107.05 124.379L110.93 125.354L118.354 95.7855L114.474 94.8114ZM108.99 122.866H95.742V126.866H108.99V122.866ZM97.6807 124.375L86.2886 79.4469L82.4114 80.43L93.8034 125.358L97.6807 124.375ZM84.35 81.9385H96.062V77.9385H84.35V81.9385ZM94.1 80.3263L100.564 113.03L104.488 112.255L98.024 79.5507L94.1 80.3263ZM104.469 113.118L112.469 80.4137L108.583 79.4632L100.583 112.167L104.469 113.118ZM110.526 81.9385H122.558V77.9385H110.526V81.9385ZM120.611 80.3957L128.291 113.1L132.185 112.185L124.505 79.4812L120.611 80.3957ZM132.199 113.034L138.727 80.3299L134.805 79.547L128.277 112.251L132.199 113.034ZM136.766 81.9385H148.542V77.9385H136.766V81.9385ZM161.455 123.714L160.696 125.565L160.696 125.565L161.455 123.714ZM155.183 118.978L153.571 120.163L153.579 120.173L153.586 120.184L155.183 118.978ZM152.751 111.426V109.426H150.692L150.751 111.484L152.751 111.426ZM164.399 111.426L166.388 111.222L166.204 109.426H164.399V111.426ZM166.127 115.266L164.778 116.743L164.796 116.76L164.814 116.776L166.127 115.266ZM173.807 115.458L175.029 117.041L175.051 117.024L175.073 117.006L173.807 115.458ZM174.063 109.57L172.648 110.985L172.668 111.005L172.689 111.024L174.063 109.57ZM171.311 107.778L170.505 109.609L170.518 109.615L170.531 109.62L171.311 107.778ZM166.703 106.178L166.112 108.089L166.122 108.092L166.132 108.095L166.703 106.178ZM159.599 103.49L158.721 105.288L159.599 103.49ZM154.863 99.5225L156.458 98.3162L156.458 98.3162L154.863 99.5225ZM157.423 82.8825L158.647 84.4636L158.654 84.4582L158.661 84.4528L157.423 82.8825ZM181.231 82.8825L179.992 84.4528L179.999 84.4582L180.006 84.4636L181.231 82.8825ZM186.095 92.7385V94.7385H188.198L188.092 92.6376L186.095 92.7385ZM174.255 92.7385L172.258 92.8559L172.369 94.7385H174.255V92.7385ZM172.655 89.3465L171.342 90.8557L171.361 90.8723L171.381 90.8884L172.655 89.3465ZM165.679 89.1545L166.967 90.6843L166.99 90.6649L167.012 90.6449L165.679 89.1545ZM166.51 95.5545L167.532 93.8347L167.532 93.8347L166.51 95.5545ZM172.911 98.1785L173.551 96.2839L173.539 96.2796L173.526 96.2756L172.911 98.1785ZM179.951 100.994L179.056 102.783L179.064 102.787L179.073 102.792L179.951 100.994ZM184.687 104.898L183.106 106.124L183.106 106.124L184.687 104.898ZM184.687 118.466L182.996 117.397L182.988 117.41L182.981 117.422L184.687 118.466ZM179.055 123.458L178.16 121.67L178.16 121.67L179.055 123.458ZM170.287 123.314C167.218 123.314 164.538 122.817 162.213 121.864L160.696 125.565C163.576 126.745 166.784 127.314 170.287 127.314V123.314ZM162.213 121.864C159.917 120.923 158.125 119.556 156.779 117.773L153.586 120.184C155.397 122.582 157.787 124.373 160.696 125.565L162.213 121.864ZM156.794 117.794C155.53 116.074 154.825 113.963 154.75 111.369L150.751 111.484C150.847 114.778 151.763 117.702 153.571 120.163L156.794 117.794ZM152.751 113.426H164.399V109.426H152.751V113.426ZM162.409 111.631C162.616 113.652 163.347 115.437 164.778 116.743L167.475 113.789C166.943 113.304 166.522 112.529 166.388 111.222L162.409 111.631ZM164.814 116.776C166.233 118.01 168.013 118.546 169.967 118.546V114.546C168.762 114.546 167.982 114.23 167.439 113.757L164.814 116.776ZM169.967 118.546C171.87 118.546 173.632 118.121 175.029 117.041L172.584 113.876C172.104 114.247 171.306 114.546 169.967 114.546V118.546ZM175.073 117.006C176.522 115.821 177.215 114.183 177.215 112.322H173.215C173.215 113.107 172.969 113.56 172.54 113.911L175.073 117.006ZM177.215 112.322C177.215 110.694 176.626 109.24 175.436 108.116L172.689 111.024C173.035 111.351 173.215 111.732 173.215 112.322H177.215ZM175.477 108.156C174.54 107.22 173.396 106.489 172.09 105.937L170.531 109.62C171.444 110.007 172.134 110.47 172.648 110.985L175.477 108.156ZM172.116 105.948C170.936 105.428 169.307 104.867 167.273 104.262L166.132 108.095C168.109 108.684 169.552 109.19 170.505 109.609L172.116 105.948ZM167.293 104.268C164.447 103.389 162.185 102.528 160.476 101.693L158.721 105.288C160.681 106.245 163.155 107.176 166.112 108.089L167.293 104.268ZM160.476 101.693C158.944 100.945 157.605 99.834 156.458 98.3162L153.267 100.729C154.765 102.71 156.583 104.244 158.721 105.288L160.476 101.693ZM156.458 98.3162C155.464 97.0019 154.879 95.1796 154.879 92.6745H150.879C150.879 95.8013 151.616 98.5443 153.267 100.729L156.458 98.3162ZM154.879 92.6745C154.879 89.0468 156.156 86.3934 158.647 84.4636L156.198 81.3014C152.63 84.0648 150.879 87.9394 150.879 92.6745H154.879ZM158.661 84.4528C161.254 82.4076 164.729 81.2985 169.263 81.2985V77.2985C164.068 77.2985 159.65 78.5786 156.184 81.3121L158.661 84.4528ZM169.263 81.2985C173.891 81.2985 177.405 82.4122 179.992 84.4528L182.469 81.3121C178.998 78.5741 174.533 77.2985 169.263 77.2985V81.2985ZM180.006 84.4636C182.523 86.4134 183.91 89.1298 184.097 92.8393L188.092 92.6376C187.853 87.8991 185.997 84.0449 182.455 81.3014L180.006 84.4636ZM186.095 90.7385H174.255V94.7385H186.095V90.7385ZM176.251 92.621C176.138 90.7021 175.4 89.0206 173.928 87.8045L171.381 90.8884C171.871 91.2936 172.2 91.8735 172.258 92.8559L176.251 92.621ZM173.967 87.8372C172.558 86.6118 170.805 86.0665 168.878 86.0665V90.0665C170.024 90.0665 170.789 90.3744 171.342 90.8557L173.967 87.8372ZM168.878 86.0665C167.175 86.0665 165.598 86.5432 164.345 87.664L167.012 90.6449C167.381 90.3151 167.937 90.0665 168.878 90.0665V86.0665ZM164.39 87.6246C163.019 88.7791 162.463 90.4089 162.463 92.1625H166.463C166.463 91.2707 166.716 90.8952 166.967 90.6843L164.39 87.6246ZM162.463 92.1625C162.463 94.396 163.587 96.1443 165.489 97.2742L167.532 93.8347C166.704 93.3433 166.463 92.8302 166.463 92.1625H162.463ZM165.489 97.2742C167.051 98.2015 169.356 99.1306 172.295 100.081L173.526 96.2756C170.662 95.349 168.7 94.5288 167.532 93.8347L165.489 97.2742ZM172.27 100.073C175.124 101.039 177.377 101.944 179.056 102.783L180.845 99.2056C178.94 98.2532 176.499 97.281 173.551 96.2839L172.27 100.073ZM179.073 102.792C180.617 103.546 181.959 104.645 183.106 106.124L186.267 103.673C184.768 101.739 182.954 100.235 180.828 99.1973L179.073 102.792ZM183.106 106.124C184.096 107.401 184.671 109.135 184.671 111.49H188.671C188.671 108.47 187.923 105.809 186.267 103.673L183.106 106.124ZM184.671 111.49C184.671 113.686 184.109 115.638 182.996 117.397L186.377 119.536C187.909 117.114 188.671 114.415 188.671 111.49H184.671ZM182.981 117.422C181.921 119.154 180.344 120.578 178.16 121.67L179.949 125.247C182.714 123.865 184.892 121.96 186.392 119.511L182.981 117.422ZM178.16 121.67C176.017 122.741 173.413 123.314 170.287 123.314V127.314C173.901 127.314 177.142 126.651 179.949 125.247L178.16 121.67ZM204.35 116.418H202.35V118.418H204.35V116.418ZM218.686 116.418H220.686V114.418H218.686V116.418ZM218.686 124.866V126.866H220.686V124.866H218.686ZM193.406 124.866H191.406V126.866H193.406V124.866ZM193.406 79.9385V77.9385H191.406V79.9385H193.406ZM204.35 79.9385H206.35V77.9385H204.35V79.9385ZM204.35 118.418H218.686V114.418H204.35V118.418ZM216.686 116.418V124.866H220.686V116.418H216.686ZM218.686 122.866H193.406V126.866H218.686V122.866ZM195.406 124.866V79.9385H191.406V124.866H195.406ZM193.406 81.9385H204.35V77.9385H193.406V81.9385ZM202.35 79.9385V116.418H206.35V79.9385H202.35ZM234.85 88.7065V86.7065H232.85V88.7065H234.85ZM234.85 97.7945H232.85V99.7945H234.85V97.7945ZM249.506 97.7945H251.506V95.7945H249.506V97.7945ZM249.506 106.242V108.242H251.506V106.242H249.506ZM234.85 106.242V104.242H232.85V106.242H234.85ZM234.85 116.098H232.85V118.098H234.85V116.098ZM251.426 116.098H253.426V114.098H251.426V116.098ZM251.426 124.866V126.866H253.426V124.866H251.426ZM223.906 124.866H221.906V126.866H223.906V124.866ZM223.906 79.9385V77.9385H221.906V79.9385H223.906ZM251.426 79.9385H253.426V77.9385H251.426V79.9385ZM251.426 88.7065V90.7065H253.426V88.7065H251.426ZM232.85 88.7065V97.7945H236.85V88.7065H232.85ZM234.85 99.7945H249.506V95.7945H234.85V99.7945ZM247.506 97.7945V106.242H251.506V97.7945H247.506ZM249.506 104.242H234.85V108.242H249.506V104.242ZM232.85 106.242V116.098H236.85V106.242H232.85ZM234.85 118.098H251.426V114.098H234.85V118.098ZM249.426 116.098V124.866H253.426V116.098H249.426ZM251.426 122.866H223.906V126.866H251.426V122.866ZM225.906 124.866V79.9385H221.906V124.866H225.906ZM223.906 81.9385H251.426V77.9385H223.906V81.9385ZM249.426 79.9385V88.7065H253.426V79.9385H249.426ZM251.426 86.7065H234.85V90.7065H251.426V86.7065ZM290.851 79.9385H292.851V77.9385H290.851V79.9385ZM290.851 88.7065V90.7065H292.851V88.7065H290.851ZM278.947 88.7065V86.7065H276.947V88.7065H278.947ZM278.947 124.866V126.866H280.947V124.866H278.947ZM268.003 124.866H266.003V126.866H268.003V124.866ZM268.003 88.7065H270.003V86.7065H268.003V88.7065ZM256.099 88.7065H254.099V90.7065H256.099V88.7065ZM256.099 79.9385V77.9385H254.099V79.9385H256.099ZM288.851 79.9385V88.7065H292.851V79.9385H288.851ZM290.851 86.7065H278.947V90.7065H290.851V86.7065ZM276.947 88.7065V124.866H280.947V88.7065H276.947ZM278.947 122.866H268.003V126.866H278.947V122.866ZM270.003 124.866V88.7065H266.003V124.866H270.003ZM268.003 86.7065H256.099V90.7065H268.003V86.7065ZM258.099 88.7065V79.9385H254.099V88.7065H258.099ZM256.099 81.9385H290.851V77.9385H256.099V81.9385ZM328.663 79.9385H330.663V77.9385H328.663V79.9385ZM328.663 88.7065V90.7065H330.663V88.7065H328.663ZM316.759 88.7065V86.7065H314.759V88.7065H316.759ZM316.759 124.866V126.866H318.759V124.866H316.759ZM305.815 124.866H303.815V126.866H305.815V124.866ZM305.815 88.7065H307.815V86.7065H305.815V88.7065ZM293.911 88.7065H291.911V90.7065H293.911V88.7065ZM293.911 79.9385V77.9385H291.911V79.9385H293.911ZM326.663 79.9385V88.7065H330.663V79.9385H326.663ZM328.663 86.7065H316.759V90.7065H328.663V86.7065ZM314.759 88.7065V124.866H318.759V88.7065H314.759ZM316.759 122.866H305.815V126.866H316.759V122.866ZM307.815 124.866V88.7065H303.815V124.866H307.815ZM305.815 86.7065H293.911V90.7065H305.815V86.7065ZM295.911 88.7065V79.9385H291.911V88.7065H295.911ZM293.911 81.9385H328.663V77.9385H293.911V81.9385ZM345.1 88.7065V86.7065H343.1V88.7065H345.1ZM345.1 97.7945H343.1V99.7945H345.1V97.7945ZM359.756 97.7945H361.756V95.7945H359.756V97.7945ZM359.756 106.242V108.242H361.756V106.242H359.756ZM345.1 106.242V104.242H343.1V106.242H345.1ZM345.1 116.098H343.1V118.098H345.1V116.098ZM361.676 116.098H363.676V114.098H361.676V116.098ZM361.676 124.866V126.866H363.676V124.866H361.676ZM334.156 124.866H332.156V126.866H334.156V124.866ZM334.156 79.9385V77.9385H332.156V79.9385H334.156ZM361.676 79.9385H363.676V77.9385H361.676V79.9385ZM361.676 88.7065V90.7065H363.676V88.7065H361.676ZM343.1 88.7065V97.7945H347.1V88.7065H343.1ZM345.1 99.7945H359.756V95.7945H345.1V99.7945ZM357.756 97.7945V106.242H361.756V97.7945H357.756ZM359.756 104.242H345.1V108.242H359.756V104.242ZM343.1 106.242V116.098H347.1V106.242H343.1ZM345.1 118.098H361.676V114.098H345.1V118.098ZM359.676 116.098V124.866H363.676V116.098H359.676ZM361.676 122.866H334.156V126.866H361.676V122.866ZM336.156 124.866V79.9385H332.156V124.866H336.156ZM334.156 81.9385H361.676V77.9385H334.156V81.9385ZM359.676 79.9385V88.7065H363.676V79.9385H359.676ZM361.676 86.7065H345.1V90.7065H361.676V86.7065ZM391.693 124.866L389.941 125.832L390.511 126.866H391.693V124.866ZM382.349 107.906L384.1 106.941L383.53 105.906H382.349V107.906ZM379.725 107.906V105.906H377.725V107.906H379.725ZM379.725 124.866V126.866H381.725V124.866H379.725ZM368.781 124.866H366.781V126.866H368.781V124.866ZM368.781 79.9385V77.9385H366.781V79.9385H368.781ZM396.173 81.7945L395.278 83.5833L395.29 83.5894L396.173 81.7945ZM401.805 86.9145L400.066 87.9031L400.07 87.9105L400.074 87.9179L401.805 86.9145ZM401.101 102.082L399.483 100.906L399.476 100.916L399.469 100.926L401.101 102.082ZM393.677 107.074L393.104 105.158L390.669 105.886L391.948 108.081L393.677 107.074ZM404.045 124.866V126.866H407.525L405.773 123.859L404.045 124.866ZM379.725 100.162H377.725V102.162H379.725V100.162ZM390.989 98.6905L389.605 97.2465L389.589 97.2612L389.574 97.2762L390.989 98.6905ZM390.989 90.4985L389.574 91.9127L389.589 91.9277L389.605 91.9424L390.989 90.4985ZM379.725 89.0265V87.0265H377.725V89.0265H379.725ZM393.444 123.901L384.1 106.941L380.597 108.872L389.941 125.832L393.444 123.901ZM382.349 105.906H379.725V109.906H382.349V105.906ZM377.725 107.906V124.866H381.725V107.906H377.725ZM379.725 122.866H368.781V126.866H379.725V122.866ZM370.781 124.866V79.9385H366.781V124.866H370.781ZM368.781 81.9385H387.149V77.9385H368.781V81.9385ZM387.149 81.9385C390.464 81.9385 393.148 82.5182 395.278 83.5833L397.067 80.0056C394.248 78.5961 390.916 77.9385 387.149 77.9385V81.9385ZM395.29 83.5894C397.493 84.672 399.05 86.1168 400.066 87.9031L403.543 85.9258C402.084 83.3601 399.887 81.3916 397.055 79.9996L395.29 83.5894ZM400.074 87.9179C401.122 89.7242 401.661 91.763 401.661 94.0825H405.661C405.661 91.1112 404.962 88.3713 403.535 85.911L400.074 87.9179ZM401.661 94.0825C401.661 96.6597 400.933 98.9119 399.483 100.906L402.718 103.259C404.681 100.56 405.661 97.4785 405.661 94.0825H401.661ZM399.469 100.926C398.11 102.842 396.047 104.279 393.104 105.158L394.249 108.991C397.877 107.907 400.763 106.017 402.732 103.239L399.469 100.926ZM391.948 108.081L402.316 125.873L405.773 123.859L395.405 106.067L391.948 108.081ZM404.045 122.866H391.693V126.866H404.045V122.866ZM379.725 102.162H386.509V98.1625H379.725V102.162ZM386.509 102.162C388.808 102.162 390.907 101.601 392.403 100.105L389.574 97.2762C389.108 97.743 388.22 98.1625 386.509 98.1625V102.162ZM392.372 100.134C393.888 98.6821 394.525 96.7154 394.525 94.5305H390.525C390.525 95.9295 390.137 96.7361 389.605 97.2465L392.372 100.134ZM394.525 94.5305C394.525 92.3979 393.868 90.4883 392.372 89.0545L389.605 91.9424C390.157 92.4713 390.525 93.2496 390.525 94.5305H394.525ZM392.403 89.0842C390.907 87.5884 388.808 87.0265 386.509 87.0265V91.0265C388.22 91.0265 389.108 91.4459 389.574 91.9127L392.403 89.0842ZM386.509 87.0265H379.725V91.0265H386.509V87.0265ZM377.725 89.0265V100.162H381.725V89.0265H377.725Z" fill="#274060" mask="url(#path-4-outside-1_236_571)"/>
</svg>
